<?xml version="1.0" encoding="UTF-8"?><!-- Created with Inkscape (http://www.inkscape.org/) --><svg xmlns="http://www.w3.org/2000/svg" xmlns:inkscape="http://www.inkscape.org/namespaces/inkscape" xmlns:sodipodi="http://sodipodi.sourceforge.net/DTD/sodipodi-0.dtd" xmlns:cc="http://creativecommons.org/ns#" xmlns:dc="http://purl.org/dc/elements/1.1/" xmlns:rdf="http://www.w3.org/1999/02/22-rdf-syntax-ns#" xmlns:svg="http://www.w3.org/2000/svg" height="96.197624" id="svg2" inkscape:version="0.91 r13725" sodipodi:docname="dessin-graphe-init.svg" version="1.1" viewBox="0 0 436.985 96.197624" width="436.985">
  <defs id="defs4">
    <marker id="Arrow1Lend" inkscape:stockid="Arrow1Lend" orient="auto" refX="0" refY="0" style="overflow:visible">
      <path d="M 0,0 5,-5 -12.5,0 5,5 0,0 Z" id="path3772" inkscape:connector-curvature="0" style="fill-rule:evenodd;stroke:#000000;stroke-width:1pt" transform="matrix(-0.8,0,0,-0.8,-10,0)"/>
    </marker>
    <marker id="Arrow1Lend-7" inkscape:stockid="Arrow1Lend" orient="auto" refX="0" refY="0" style="overflow:visible">
      <path d="M 0,0 5,-5 -12.5,0 5,5 0,0 Z" id="path3772-7" inkscape:connector-curvature="0" style="fill-rule:evenodd;stroke:#000000;stroke-width:1pt" transform="matrix(-0.8,0,0,-0.8,-10,0)"/>
    </marker>
    <marker id="Arrow1Lend-2" inkscape:stockid="Arrow1Lend" orient="auto" refX="0" refY="0" style="overflow:visible">
      <path d="M 0,0 5,-5 -12.5,0 5,5 0,0 Z" id="path3772-9" inkscape:connector-curvature="0" style="fill-rule:evenodd;stroke:#000000;stroke-width:1pt" transform="matrix(-0.8,0,0,-0.8,-10,0)"/>
    </marker>
    <marker id="Arrow1Lend-25" inkscape:stockid="Arrow1Lend" orient="auto" refX="0" refY="0" style="overflow:visible">
      <path d="M 0,0 5,-5 -12.5,0 5,5 0,0 Z" id="path3772-8" inkscape:connector-curvature="0" style="fill-rule:evenodd;stroke:#000000;stroke-width:1pt" transform="matrix(-0.8,0,0,-0.8,-10,0)"/>
    </marker>
    <marker id="Arrow1Lend-1" inkscape:stockid="Arrow1Lend" orient="auto" refX="0" refY="0" style="overflow:visible">
      <path d="M 0,0 5,-5 -12.5,0 5,5 0,0 Z" id="path3772-3" inkscape:connector-curvature="0" style="fill-rule:evenodd;stroke:#000000;stroke-width:1pt" transform="matrix(-0.8,0,0,-0.8,-10,0)"/>
    </marker>
    <marker id="Arrow1Lend-5" inkscape:stockid="Arrow1Lend" orient="auto" refX="0" refY="0" style="overflow:visible">
      <path d="M 0,0 5,-5 -12.5,0 5,5 0,0 Z" id="path3772-32" inkscape:connector-curvature="0" style="fill-rule:evenodd;stroke:#000000;stroke-width:1pt" transform="matrix(-0.8,0,0,-0.8,-10,0)"/>
    </marker>
    <marker id="Arrow1Lend-8" inkscape:stockid="Arrow1Lend" orient="auto" refX="0" refY="0" style="overflow:visible">
      <path d="M 0,0 5,-5 -12.5,0 5,5 0,0 Z" id="path3772-4" inkscape:connector-curvature="0" style="fill-rule:evenodd;stroke:#000000;stroke-width:1pt" transform="matrix(-0.8,0,0,-0.8,-10,0)"/>
    </marker>
  </defs>
  <sodipodi:namedview bordercolor="#666666" borderopacity="1.0" fit-margin-bottom="5" fit-margin-left="5" fit-margin-right="5" fit-margin-top="5" id="base" inkscape:current-layer="layer1" inkscape:cx="308.61452" inkscape:cy="4.1819244" inkscape:document-units="px" inkscape:pageopacity="0.0" inkscape:pageshadow="2" inkscape:window-height="835" inkscape:window-maximized="0" inkscape:window-width="1306" inkscape:window-x="1473" inkscape:window-y="28" inkscape:zoom="1.63" pagecolor="#ffffff" showgrid="true">
    <inkscape:grid empspacing="5" enabled="true" id="grid2985" originx="27.488281" originy="-663.67188" snapvisiblegridlinesonly="true" type="xygrid" visible="true"/>
  </sodipodi:namedview>
  <metadata id="metadata7">
    <rdf:RDF id="ID_PubliTool_N100AB">
      <cc:Work id="ID_PubliTool_N100AD" rdf:about="">
        <dc:format id="ID_PubliTool_N100B0">image/svg+xml</dc:format>
        <dc:type id="ID_PubliTool_N100B3" rdf:resource="http://purl.org/dc/dcmitype/StillImage"/>
        <dc:title id="ID_PubliTool_N100B6"/>
      </cc:Work>
    </rdf:RDF>
  </metadata>
  <g transform="scale(0.6)"><g id="layer1" inkscape:groupmode="layer" inkscape:label="Calque 1" transform="translate(27.488281,-228.36095)">
    <text id="text3757" sodipodi:linespacing="125%" style="font-style:normal;font-variant:normal;font-weight:normal;font-stretch:normal;font-size:20px;line-height:125%;font-family:'Times New Roman';-inkscape-font-specification:'Times New Roman,';text-align:center;letter-spacing:0px;word-spacing:0px;writing-mode:lr-tb;text-anchor:middle;fill:#000000;fill-opacity:1;stroke:none" x="102" xml:space="preserve" y="278.36218"><tspan id="tspan3759" sodipodi:role="line" x="102" y="278.36218">µ@0</tspan></text>
    <path d="m 30.000066,242.29912 a 30,30 0 0 1 28.575615,-29.90311 30,30 0 0 1 31.283026,27.05798 30,30 0 0 1 -25.473786,32.586 30,30 0 0 1 -33.808847,-23.82695" id="path3761" sodipodi:cx="60" sodipodi:cy="242.36218" sodipodi:end="2.9453059" sodipodi:open="true" sodipodi:rx="30" sodipodi:ry="30" sodipodi:start="3.1436947" sodipodi:type="arc" style="fill:none;stroke:#000000;stroke-width:2;stroke-linecap:square;stroke-miterlimit:2;stroke-dasharray:none;stroke-dashoffset:0;stroke-opacity:1" transform="translate(40,30)"/>
    <path d="m 130,272.36218 40,0" id="path3763" inkscape:connector-curvature="0" style="fill:none;stroke:#000000;stroke-width:1;stroke-linecap:butt;stroke-linejoin:miter;stroke-miterlimit:4;stroke-dasharray:none;stroke-opacity:1;marker-end:url(#Arrow1Lend)"/>
    <text id="text3757-8" sodipodi:linespacing="125%" style="font-style:normal;font-variant:normal;font-weight:normal;font-stretch:normal;font-size:20px;line-height:125%;font-family:'Times New Roman';-inkscape-font-specification:'Times New Roman,';text-align:center;letter-spacing:0px;word-spacing:0px;writing-mode:lr-tb;text-anchor:middle;fill:#000000;fill-opacity:1;stroke:none" x="200" xml:space="preserve" y="278.36218"><tspan id="tspan3759-2" sodipodi:role="line" x="200" y="278.36218">µ@1</tspan></text>
    <path d="m 30.000066,242.29912 a 30,30 0 0 1 28.575615,-29.90311 30,30 0 0 1 31.283026,27.05798 30,30 0 0 1 -25.473786,32.586 30,30 0 0 1 -33.808847,-23.82695" id="path3761-0" sodipodi:cx="60" sodipodi:cy="242.36218" sodipodi:end="2.9453059" sodipodi:open="true" sodipodi:rx="30" sodipodi:ry="30" sodipodi:start="3.1436947" sodipodi:type="arc" style="fill:none;stroke:#000000;stroke-width:2;stroke-linecap:square;stroke-miterlimit:2;stroke-dasharray:none;stroke-dashoffset:0;stroke-opacity:1" transform="translate(138,30)"/>
    <path d="m 228,272.36218 40,0" id="path3763-2" inkscape:connector-curvature="0" style="fill:none;stroke:#000000;stroke-width:1;stroke-linecap:butt;stroke-linejoin:miter;stroke-miterlimit:4;stroke-dasharray:none;stroke-opacity:1;marker-end:url(#Arrow1Lend)"/>
    <text id="text3757-2" sodipodi:linespacing="125%" style="font-style:normal;font-variant:normal;font-weight:normal;font-stretch:normal;font-size:20px;line-height:125%;font-family:'Times New Roman';-inkscape-font-specification:'Times New Roman,';text-align:center;letter-spacing:0px;word-spacing:0px;writing-mode:lr-tb;text-anchor:middle;fill:#000000;fill-opacity:1;stroke:none" x="302" xml:space="preserve" y="278.36218"><tspan id="tspan3759-26" sodipodi:role="line" x="302" y="278.36218">µ@2</tspan></text>
    <path d="m 30.000066,242.29912 a 30,30 0 0 1 28.575615,-29.90311 30,30 0 0 1 31.283026,27.05798 30,30 0 0 1 -25.473786,32.586 30,30 0 0 1 -33.808847,-23.82695" id="path3761-4" sodipodi:cx="60" sodipodi:cy="242.36218" sodipodi:end="2.9453059" sodipodi:open="true" sodipodi:rx="30" sodipodi:ry="30" sodipodi:start="3.1436947" sodipodi:type="arc" style="fill:none;stroke:#000000;stroke-width:2;stroke-linecap:square;stroke-miterlimit:2;stroke-dasharray:none;stroke-dashoffset:0;stroke-opacity:1" transform="translate(240,30)"/>
    <path d="m 330,272.36218 40,0" id="path3763-0" inkscape:connector-curvature="0" style="fill:none;stroke:#000000;stroke-width:1;stroke-linecap:butt;stroke-linejoin:miter;stroke-miterlimit:4;stroke-dasharray:none;stroke-opacity:1;marker-end:url(#Arrow1Lend)"/>
    <text id="text3757-80" sodipodi:linespacing="125%" style="font-style:normal;font-variant:normal;font-weight:normal;font-stretch:normal;font-size:20px;line-height:125%;font-family:'Times New Roman';-inkscape-font-specification:'Times New Roman,';text-align:center;letter-spacing:0px;word-spacing:0px;writing-mode:lr-tb;text-anchor:middle;fill:#000000;fill-opacity:1;stroke:none" x="402" xml:space="preserve" y="278.36218"><tspan id="tspan3759-1" sodipodi:role="line" x="402" y="278.36218">µ@3</tspan></text>
    <path d="m 30.000066,242.29912 a 30,30 0 0 1 28.575615,-29.90311 30,30 0 0 1 31.283026,27.05798 30,30 0 0 1 -25.473786,32.586 30,30 0 0 1 -33.808847,-23.82695" id="path3761-1" sodipodi:cx="60" sodipodi:cy="242.36218" sodipodi:end="2.9453059" sodipodi:open="true" sodipodi:rx="30" sodipodi:ry="30" sodipodi:start="3.1436947" sodipodi:type="arc" style="fill:none;stroke:#000000;stroke-width:2;stroke-linecap:square;stroke-miterlimit:2;stroke-dasharray:none;stroke-dashoffset:0;stroke-opacity:1" transform="translate(340,30)"/>
    <path d="m 430,272.36218 40,0" id="path3763-9" inkscape:connector-curvature="0" style="fill:none;stroke:#000000;stroke-width:1;stroke-linecap:butt;stroke-linejoin:miter;stroke-miterlimit:4;stroke-dasharray:none;stroke-opacity:1;marker-end:url(#Arrow1Lend)"/>
    <text id="text3757-4" sodipodi:linespacing="125%" style="font-style:normal;font-variant:normal;font-weight:normal;font-stretch:normal;font-size:20px;line-height:125%;font-family:'Times New Roman';-inkscape-font-specification:'Times New Roman,';text-align:center;letter-spacing:0px;word-spacing:0px;writing-mode:lr-tb;text-anchor:middle;fill:#000000;fill-opacity:1;stroke:none" x="502" xml:space="preserve" y="278.36218"><tspan id="tspan3759-4" sodipodi:role="line" x="502" y="278.36218">µ@4</tspan></text>
    <path d="m 30.000066,242.29912 a 30,30 0 0 1 28.575615,-29.90311 30,30 0 0 1 31.283026,27.05798 30,30 0 0 1 -25.473786,32.586 30,30 0 0 1 -33.808847,-23.82695" id="path3761-6" sodipodi:cx="60" sodipodi:cy="242.36218" sodipodi:end="2.9453059" sodipodi:open="true" sodipodi:rx="30" sodipodi:ry="30" sodipodi:start="3.1436947" sodipodi:type="arc" style="fill:none;stroke:#000000;stroke-width:2;stroke-linecap:square;stroke-miterlimit:2;stroke-dasharray:none;stroke-dashoffset:0;stroke-opacity:1" transform="translate(440,30)"/>
    <path d="m 530,272.36218 40,0" id="path3763-6" inkscape:connector-curvature="0" style="fill:none;stroke:#000000;stroke-width:1;stroke-linecap:butt;stroke-linejoin:miter;stroke-miterlimit:4;stroke-dasharray:none;stroke-opacity:1;marker-end:url(#Arrow1Lend)"/>
    <text id="text3757-7" sodipodi:linespacing="125%" style="font-style:normal;font-variant:normal;font-weight:normal;font-stretch:normal;font-size:20px;line-height:125%;font-family:'Times New Roman';-inkscape-font-specification:'Times New Roman,';text-align:center;letter-spacing:0px;word-spacing:0px;writing-mode:lr-tb;text-anchor:middle;fill:#000000;fill-opacity:1;stroke:none" x="610" xml:space="preserve" y="278.36218"><tspan id="tspan3759-44" sodipodi:role="line" x="610" y="278.36218">µ@F0</tspan></text>
    <path d="m 654,272.36218 40,0" id="path3763-8" inkscape:connector-curvature="0" style="fill:none;stroke:#000000;stroke-width:1;stroke-linecap:butt;stroke-linejoin:miter;stroke-miterlimit:4;stroke-dasharray:3, 1;stroke-dashoffset:0;stroke-opacity:1;marker-end:url(#Arrow1Lend)"/>
    <path d="m 570.05366,384.43331 a 40,40 0 0 1 37.44292,-41.99271 40,40 0 0 1 42.39557,36.98615 40,40 0 0 1 -36.52506,42.79346 40,40 0 0 1 -43.18634,-36.05966" id="path4310" sodipodi:cx="610" sodipodi:cy="382.36218" sodipodi:end="3.0464903" sodipodi:open="true" sodipodi:rx="40" sodipodi:ry="40" sodipodi:start="3.0897914" sodipodi:type="arc" style="fill:none;stroke:#000000;stroke-width:2;stroke-linecap:square;stroke-miterlimit:4;stroke-dasharray:none;stroke-dashoffset:0;stroke-opacity:1" transform="translate(0,-108)"/>
    <path d="m 30,272.36218 40,0" id="path3763-5" inkscape:connector-curvature="0" style="fill:none;stroke:#000000;stroke-width:1;stroke-linecap:butt;stroke-linejoin:miter;stroke-miterlimit:4;stroke-dasharray:none;stroke-opacity:1;marker-end:url(#Arrow1Lend)"/>
    <text id="text4336" sodipodi:linespacing="125%" style="font-style:normal;font-variant:normal;font-weight:normal;font-stretch:normal;font-size:24px;line-height:125%;font-family:'Times New Roman';-inkscape-font-specification:'Times New Roman,';text-align:center;letter-spacing:0px;word-spacing:0px;writing-mode:lr-tb;text-anchor:middle;fill:#000000;fill-opacity:1;stroke:none" x="0" xml:space="preserve" y="278.36218"><tspan id="tspan4338" sodipodi:role="line" x="0" y="278.36218">reset</tspan></text>
    <path d="m 530,300.36218 -10,20 -210,30 -10,10 -10,-10 -210,-30 -10,-20" id="path4342" inkscape:connector-curvature="0" style="fill:none;stroke:#000000;stroke-width:1px;stroke-linecap:butt;stroke-linejoin:miter;stroke-opacity:1"/>
    <text id="text4336-1" sodipodi:linespacing="125%" style="font-style:normal;font-variant:normal;font-weight:normal;font-stretch:normal;font-size:24px;line-height:125%;font-family:'Times New Roman';-inkscape-font-specification:'Times New Roman,';text-align:center;letter-spacing:0px;word-spacing:0px;writing-mode:lr-tb;text-anchor:middle;fill:#000000;fill-opacity:1;stroke:none" x="300" xml:space="preserve" y="383.36218"><tspan id="tspan4338-9" sodipodi:role="line" x="300" y="383.36218">initialisation</tspan></text>
  </g>
</g></svg>