<?xml version="1.0" encoding="UTF-8"?><!-- Created with Inkscape (http://www.inkscape.org/) --><svg xmlns="http://www.w3.org/2000/svg" xmlns:inkscape="http://www.inkscape.org/namespaces/inkscape" xmlns:sodipodi="http://sodipodi.sourceforge.net/DTD/sodipodi-0.dtd" xmlns:cc="http://creativecommons.org/ns#" xmlns:dc="http://purl.org/dc/elements/1.1/" xmlns:rdf="http://www.w3.org/1999/02/22-rdf-syntax-ns#" xmlns:svg="http://www.w3.org/2000/svg" height="221.62187" id="svg2" inkscape:version="0.91 r13725" sodipodi:docname="graphe-boucle-von-neumann.svg" version="1.1" viewBox="0 0 503.84064 221.62187" width="503.84064">
  <defs id="defs4">
    <inkscape:path-effect bendpath="m 84,327.36218 170,0" effect="bend_path" id="path-effect3181" is_visible="true" prop_scale="1" scale_y_rel="false" vertical="false"/>
    <inkscape:path-effect bendpath="m 390,337.36219 110,0" effect="bend_path" id="path-effect3179" is_visible="true" prop_scale="1" scale_y_rel="false" vertical="false"/>
    <inkscape:path-effect bendpath="m 395,334.86219 c 34.41861,7.84883 66.39082,48.72391 105,0" bendpath-nodetypes="cc" effect="bend_path" id="path-effect3169" is_visible="true" prop_scale="2" scale_y_rel="false" vertical="false"/>
    <inkscape:path-effect bendpath="m 395,334.86219 105,0" effect="bend_path" id="path-effect3166" is_visible="true" prop_scale="1" scale_y_rel="false" vertical="false"/>
    <marker id="Arrow1Lend" inkscape:stockid="Arrow1Lend" orient="auto" refX="0" refY="0" style="overflow:visible">
      <path d="M 0,0 5,-5 -12.5,0 5,5 0,0 Z" id="path3772" inkscape:connector-curvature="0" style="fill-rule:evenodd;stroke:#000000;stroke-width:1pt" transform="matrix(-0.8,0,0,-0.8,-10,0)"/>
    </marker>
    <marker id="Arrow1Lend-7" inkscape:stockid="Arrow1Lend" orient="auto" refX="0" refY="0" style="overflow:visible">
      <path d="M 0,0 5,-5 -12.5,0 5,5 0,0 Z" id="path3772-7" inkscape:connector-curvature="0" style="fill-rule:evenodd;stroke:#000000;stroke-width:1pt" transform="matrix(-0.8,0,0,-0.8,-10,0)"/>
    </marker>
    <marker id="Arrow1Lend-2" inkscape:stockid="Arrow1Lend" orient="auto" refX="0" refY="0" style="overflow:visible">
      <path d="M 0,0 5,-5 -12.5,0 5,5 0,0 Z" id="path3772-9" inkscape:connector-curvature="0" style="fill-rule:evenodd;stroke:#000000;stroke-width:1pt" transform="matrix(-0.8,0,0,-0.8,-10,0)"/>
    </marker>
    <marker id="Arrow1Lend-25" inkscape:stockid="Arrow1Lend" orient="auto" refX="0" refY="0" style="overflow:visible">
      <path d="M 0,0 5,-5 -12.5,0 5,5 0,0 Z" id="path3772-8" inkscape:connector-curvature="0" style="fill-rule:evenodd;stroke:#000000;stroke-width:1pt" transform="matrix(-0.8,0,0,-0.8,-10,0)"/>
    </marker>
    <marker id="Arrow1Lend-1" inkscape:stockid="Arrow1Lend" orient="auto" refX="0" refY="0" style="overflow:visible">
      <path d="M 0,0 5,-5 -12.5,0 5,5 0,0 Z" id="path3772-3" inkscape:connector-curvature="0" style="fill-rule:evenodd;stroke:#000000;stroke-width:1pt" transform="matrix(-0.8,0,0,-0.8,-10,0)"/>
    </marker>
    <marker id="Arrow1Lend-5" inkscape:stockid="Arrow1Lend" orient="auto" refX="0" refY="0" style="overflow:visible">
      <path d="M 0,0 5,-5 -12.5,0 5,5 0,0 Z" id="path3772-32" inkscape:connector-curvature="0" style="fill-rule:evenodd;stroke:#000000;stroke-width:1pt" transform="matrix(-0.8,0,0,-0.8,-10,0)"/>
    </marker>
    <marker id="Arrow1Lend-8" inkscape:stockid="Arrow1Lend" orient="auto" refX="0" refY="0" style="overflow:visible">
      <path d="M 0,0 5,-5 -12.5,0 5,5 0,0 Z" id="path3772-4" inkscape:connector-curvature="0" style="fill-rule:evenodd;stroke:#000000;stroke-width:1pt" transform="matrix(-0.8,0,0,-0.8,-10,0)"/>
    </marker>
    <marker id="Arrow1Lend-84" inkscape:stockid="Arrow1Lend" orient="auto" refX="0" refY="0" style="overflow:visible">
      <path d="M 0,0 5,-5 -12.5,0 5,5 0,0 Z" id="path3772-0" inkscape:connector-curvature="0" style="fill-rule:evenodd;stroke:#000000;stroke-width:1pt" transform="matrix(-0.8,0,0,-0.8,-10,0)"/>
    </marker>
    <marker id="Arrow1Lend-4" inkscape:stockid="Arrow1Lend" orient="auto" refX="0" refY="0" style="overflow:visible">
      <path d="M 0,0 5,-5 -12.5,0 5,5 0,0 Z" id="path3772-6" inkscape:connector-curvature="0" style="fill-rule:evenodd;stroke:#000000;stroke-width:1pt" transform="matrix(-0.8,0,0,-0.8,-10,0)"/>
    </marker>
  </defs>
  <sodipodi:namedview bordercolor="#666666" borderopacity="1.0" fit-margin-bottom="5" fit-margin-left="5" fit-margin-right="5" fit-margin-top="5" id="base" inkscape:current-layer="layer1" inkscape:cx="307.35204" inkscape:cy="53.217109" inkscape:document-units="px" inkscape:object-paths="true" inkscape:pageopacity="0.0" inkscape:pageshadow="2" inkscape:window-height="835" inkscape:window-maximized="0" inkscape:window-width="1043" inkscape:window-x="1639" inkscape:window-y="174" inkscape:zoom="1.15" pagecolor="#ffffff" showgrid="true">
    <inkscape:grid empspacing="5" enabled="true" id="grid2985" originx="27.488281" originy="-614.6367" snapvisiblegridlinesonly="true" type="xygrid" visible="true"/>
  </sodipodi:namedview>
  <metadata id="metadata7">
    <rdf:RDF id="ID_PubliTool_N100F1">
      <cc:Work id="ID_PubliTool_N100F3" rdf:about="">
        <dc:format id="ID_PubliTool_N100F6">image/svg+xml</dc:format>
        <dc:type id="ID_PubliTool_N100F9" rdf:resource="http://purl.org/dc/dcmitype/StillImage"/>
        <dc:title id="ID_PubliTool_N100FC"/>
      </cc:Work>
    </rdf:RDF>
  </metadata>
  <g transform="scale(0.8)"><g id="layer1" inkscape:groupmode="layer" inkscape:label="Calque 1" transform="translate(27.488281,-160.69814)">
    <text id="text3757" sodipodi:linespacing="125%" style="font-style:normal;font-variant:normal;font-weight:normal;font-stretch:normal;font-size:20px;line-height:125%;font-family:'Times New Roman';-inkscape-font-specification:'Times New Roman,';text-align:center;letter-spacing:0px;word-spacing:0px;writing-mode:lr-tb;text-anchor:middle;fill:#000000;fill-opacity:1;stroke:none" x="102" xml:space="preserve" y="278.36218"><tspan id="tspan3759" sodipodi:role="line" x="102" y="278.36218">µ@00</tspan></text>
    <path d="m 30.000066,242.29912 a 30,30 0 0 1 28.575615,-29.90311 30,30 0 0 1 31.283026,27.05798 30,30 0 0 1 -25.473786,32.586 30,30 0 0 1 -33.808847,-23.82695" id="path3761" sodipodi:cx="60" sodipodi:cy="242.36218" sodipodi:end="2.9453059" sodipodi:open="true" sodipodi:rx="30" sodipodi:ry="30" sodipodi:start="3.1436947" sodipodi:type="arc" style="fill:none;stroke:#000000;stroke-width:2;stroke-linecap:square;stroke-miterlimit:2;stroke-dasharray:none;stroke-dashoffset:0;stroke-opacity:1" transform="translate(40,30)"/>
    <path d="m 130,272.36218 90,10e-6" id="path3763" inkscape:connector-curvature="0" sodipodi:nodetypes="cc" style="fill:none;stroke:#000000;stroke-width:1;stroke-linecap:butt;stroke-linejoin:miter;stroke-miterlimit:4;stroke-dasharray:3, 3;stroke-dashoffset:0;stroke-opacity:1;marker-end:url(#Arrow1Lend)"/>
    <text id="text3757-8" sodipodi:linespacing="125%" style="font-style:normal;font-variant:normal;font-weight:normal;font-stretch:normal;font-size:20px;line-height:125%;font-family:'Times New Roman';-inkscape-font-specification:'Times New Roman,';text-align:center;letter-spacing:0px;word-spacing:0px;writing-mode:lr-tb;text-anchor:middle;fill:#000000;fill-opacity:1;stroke:none" x="532" xml:space="preserve" y="388.36218"><tspan id="tspan3759-2" sodipodi:role="line" x="532" y="388.36218">µ@08</tspan></text>
    <path d="m 30.000066,242.29912 a 30,30 0 0 1 28.575615,-29.90311 30,30 0 0 1 31.283026,27.05798 30,30 0 0 1 -25.473786,32.586 30,30 0 0 1 -33.808847,-23.82695" id="path3761-0" sodipodi:cx="60" sodipodi:cy="242.36218" sodipodi:end="2.9453059" sodipodi:open="true" sodipodi:rx="30" sodipodi:ry="30" sodipodi:start="3.1436947" sodipodi:type="arc" style="fill:none;stroke:#000000;stroke-width:2;stroke-linecap:square;stroke-miterlimit:2;stroke-dasharray:none;stroke-dashoffset:0;stroke-opacity:1" transform="translate(470,140.00001)"/>
    <path d="m 500,372.36219 c -40,0 -90,-40 -110,-70" id="path3062" inkscape:connector-curvature="0" inkscape:original-d="m 500,372.36219 c -40,0 -90,-40 -110,-70" inkscape:path-effect="#path-effect3179" sodipodi:nodetypes="cc" style="fill:none;stroke:#000000;stroke-width:1;stroke-linecap:butt;stroke-linejoin:miter;stroke-miterlimit:4;stroke-opacity:1;marker-end:url(#Arrow1Lend)"/>
    <text id="text3757-4" sodipodi:linespacing="125%" style="font-style:normal;font-variant:normal;font-weight:normal;font-stretch:normal;font-size:20px;line-height:125%;font-family:'Times New Roman';-inkscape-font-specification:'Times New Roman,';text-align:center;letter-spacing:0px;word-spacing:0px;writing-mode:lr-tb;text-anchor:middle;fill:#000000;fill-opacity:1;stroke:none" x="254" xml:space="preserve" y="278.36218"><tspan id="tspan3759-4" sodipodi:role="line" x="254" y="278.36218">µ@04</tspan></text>
    <path d="m 30.000066,242.29912 a 30,30 0 0 1 28.575615,-29.90311 30,30 0 0 1 31.283026,27.05798 30,30 0 0 1 -25.473786,32.586 30,30 0 0 1 -33.808847,-23.82695" id="path3761-6" sodipodi:cx="60" sodipodi:cy="242.36218" sodipodi:end="2.9453059" sodipodi:open="true" sodipodi:rx="30" sodipodi:ry="30" sodipodi:start="3.1436947" sodipodi:type="arc" style="fill:none;stroke:#000000;stroke-width:2;stroke-linecap:square;stroke-miterlimit:2;stroke-dasharray:none;stroke-dashoffset:0;stroke-opacity:1" transform="translate(192,30)"/>
    <path d="m 282,272.36218 40,0" id="path3763-6" inkscape:connector-curvature="0" style="fill:none;stroke:#000000;stroke-width:1;stroke-linecap:butt;stroke-linejoin:miter;stroke-miterlimit:4;stroke-dasharray:none;stroke-opacity:1;marker-end:url(#Arrow1Lend)"/>
    <text id="text3757-7" sodipodi:linespacing="125%" style="font-style:normal;font-variant:normal;font-weight:normal;font-stretch:normal;font-size:20px;line-height:125%;font-family:'Times New Roman';-inkscape-font-specification:'Times New Roman,';text-align:center;letter-spacing:0px;word-spacing:0px;writing-mode:lr-tb;text-anchor:middle;fill:#000000;fill-opacity:1;stroke:none" x="362" xml:space="preserve" y="278.36218"><tspan id="tspan3759-44" sodipodi:role="line" x="362" y="278.36218">µ@F0</tspan></text>
    <path d="m 406,272.36218 84,10e-6" id="path3763-8" inkscape:connector-curvature="0" sodipodi:nodetypes="cc" style="fill:none;stroke:#000000;stroke-width:1;stroke-linecap:butt;stroke-linejoin:miter;stroke-miterlimit:4;stroke-dasharray:3, 3;stroke-dashoffset:0;stroke-opacity:1;marker-end:url(#Arrow1Lend)"/>
    <path d="m 570.05366,384.43331 a 40,40 0 0 1 37.44292,-41.99271 40,40 0 0 1 42.39557,36.98615 40,40 0 0 1 -36.52506,42.79346 40,40 0 0 1 -43.18634,-36.05966" id="path4310" sodipodi:cx="610" sodipodi:cy="382.36218" sodipodi:end="3.0464903" sodipodi:open="true" sodipodi:rx="40" sodipodi:ry="40" sodipodi:start="3.0897914" sodipodi:type="arc" style="fill:none;stroke:#000000;stroke-width:2;stroke-linecap:square;stroke-miterlimit:4;stroke-dasharray:none;stroke-dashoffset:0;stroke-opacity:1" transform="translate(-248,-108)"/>
    <path d="m 30,272.36218 40,0" id="path3763-5" inkscape:connector-curvature="0" style="fill:none;stroke:#000000;stroke-width:1;stroke-linecap:butt;stroke-linejoin:miter;stroke-miterlimit:4;stroke-dasharray:none;stroke-opacity:1;marker-end:url(#Arrow1Lend)"/>
    <text id="text4336" sodipodi:linespacing="125%" style="font-style:normal;font-variant:normal;font-weight:normal;font-stretch:normal;font-size:24px;line-height:125%;font-family:'Times New Roman';-inkscape-font-specification:'Times New Roman,';text-align:center;letter-spacing:0px;word-spacing:0px;writing-mode:lr-tb;text-anchor:middle;fill:#000000;fill-opacity:1;stroke:none" x="0" xml:space="preserve" y="278.36218"><tspan id="tspan4338" sodipodi:role="line" x="0" y="278.36218">reset</tspan></text>
    <path d="m 254,308.36218 c -24.28571,30 -34.40476,30 -64.7619,30 l -16.19048,8 -14.16667,-8 c -40.47619,0 -64.761902,-18 -74.88095,-28" id="path4342" inkscape:connector-curvature="0" inkscape:original-d="m 254,308.36219 c -24,30 -34,30 -64,30 l -16,7.99999 -14,-7.99999 c -40,0 -64,-18 -74,-28" inkscape:path-effect="#path-effect3181" sodipodi:nodetypes="ccccc" style="fill:none;stroke:#000000;stroke-width:1px;stroke-linecap:butt;stroke-linejoin:miter;stroke-opacity:1"/>
    <text id="text4336-1" sodipodi:linespacing="125%" style="font-style:normal;font-variant:normal;font-weight:normal;font-stretch:normal;font-size:24px;line-height:125%;font-family:'Times New Roman';-inkscape-font-specification:'Times New Roman,';text-align:center;letter-spacing:0px;word-spacing:0px;writing-mode:lr-tb;text-anchor:middle;fill:#000000;fill-opacity:1;stroke:none" x="174" xml:space="preserve" y="369.36218"><tspan id="tspan4338-9" sodipodi:role="line" x="174" y="369.36218">initialisation</tspan></text>
    <text id="text3757-7-3" sodipodi:linespacing="125%" style="font-style:normal;font-variant:normal;font-weight:normal;font-stretch:normal;font-size:20px;line-height:125%;font-family:'Times New Roman';-inkscape-font-specification:'Times New Roman,';text-align:center;letter-spacing:0px;word-spacing:0px;writing-mode:lr-tb;text-anchor:middle;fill:#000000;fill-opacity:1;stroke:none" x="530" xml:space="preserve" y="278.36218"><tspan id="tspan3759-44-9" sodipodi:role="line" x="530" y="278.36218">µ@FF</tspan></text>
    <path d="m 570.05366,384.43331 a 40,40 0 0 1 37.44292,-41.99271 40,40 0 0 1 42.39557,36.98615 40,40 0 0 1 -36.52506,42.79346 40,40 0 0 1 -43.18634,-36.05966" id="path4310-5" sodipodi:cx="610" sodipodi:cy="382.36218" sodipodi:end="3.0464903" sodipodi:open="true" sodipodi:rx="40" sodipodi:ry="40" sodipodi:start="3.0897914" sodipodi:type="arc" style="fill:none;stroke:#000000;stroke-width:2;stroke-linecap:square;stroke-miterlimit:4;stroke-dasharray:none;stroke-dashoffset:0;stroke-opacity:1" transform="translate(-80.000008,-107.99999)"/>
    <path d="m 490,222.36218 -10,-10 -60,-17.99999 -10,-10 -10,10 -70,17.99999 -10,10" id="path4342-4" inkscape:connector-curvature="0" sodipodi:nodetypes="ccccccc" style="fill:none;stroke:#000000;stroke-width:1px;stroke-linecap:butt;stroke-linejoin:miter;stroke-opacity:1"/>
    <text id="text4336-1-3" sodipodi:linespacing="125%" style="font-style:normal;font-variant:normal;font-weight:normal;font-stretch:normal;font-size:24px;line-height:125%;font-family:'Times New Roman';-inkscape-font-specification:'Times New Roman,';text-align:center;letter-spacing:0px;word-spacing:0px;writing-mode:lr-tb;text-anchor:middle;fill:#000000;fill-opacity:1;stroke:none" x="410" xml:space="preserve" y="182.3622"><tspan id="tspan4338-9-9" sodipodi:role="line" x="410" y="182.3622">fetch</tspan></text>
    <text id="text4336-1-3-6" sodipodi:linespacing="125%" style="font-style:normal;font-variant:normal;font-weight:normal;font-stretch:normal;font-size:24px;line-height:125%;font-family:'Times New Roman';-inkscape-font-specification:'Times New Roman,';text-align:center;letter-spacing:0px;word-spacing:0px;writing-mode:lr-tb;text-anchor:middle;fill:#000000;fill-opacity:1;stroke:none" x="520" xml:space="preserve" y="192.3622"><tspan id="tspan4338-9-9-1" sodipodi:role="line" x="520" y="192.3622">decode</tspan></text>
    <text id="text4336-1-3-9" sodipodi:linespacing="125%" style="font-style:normal;font-variant:normal;font-weight:normal;font-stretch:normal;font-size:24px;line-height:125%;font-family:'Times New Roman';-inkscape-font-specification:'Times New Roman,';text-align:center;letter-spacing:0px;word-spacing:0px;writing-mode:lr-tb;text-anchor:middle;fill:#000000;fill-opacity:1;stroke:none" x="530" xml:space="preserve" y="432.36221"><tspan id="tspan4338-9-9-0" sodipodi:role="line" x="530" y="432.36221">execute MOV</tspan></text>
    <path d="m 530,312.36219 0,40" id="path3763-5-7" inkscape:connector-curvature="0" style="fill:none;stroke:#000000;stroke-width:1;stroke-linecap:butt;stroke-linejoin:miter;stroke-miterlimit:4;stroke-dasharray:none;stroke-opacity:1;marker-end:url(#Arrow1Lend)"/>
  </g>
</g></svg>